<mxfile host="app.diagrams.net" modified="2023-12-05T09:54:46.653Z" agent="Mozilla/5.0 (Windows NT 10.0; Win64; x64) AppleWebKit/537.36 (KHTML, like Gecko) Chrome/119.0.0.0 Safari/537.36" etag="Y9zON2Tndo7v0cZmayDU" version="22.1.5" type="device">
  <diagram name="Pagina-1" id="Nk1MBHoaBnGiJNcPc6ec">
    <mxGraphModel dx="3827" dy="2823" grid="1" gridSize="10" guides="1" tooltips="1" connect="1" arrows="1" fold="1" page="1" pageScale="1" pageWidth="827" pageHeight="1169" math="0" shadow="0">
      <root>
        <mxCell id="0" />
        <mxCell id="1" parent="0" />
        <mxCell id="Gw0HQZb2f8hcH7KHqkjq-8" style="rounded=0;orthogonalLoop=1;jettySize=auto;html=1;exitX=1;exitY=0.5;exitDx=0;exitDy=0;exitPerimeter=0;endArrow=none;endFill=0;" edge="1" parent="1" source="Gw0HQZb2f8hcH7KHqkjq-1" target="Gw0HQZb2f8hcH7KHqkjq-2">
          <mxGeometry relative="1" as="geometry" />
        </mxCell>
        <mxCell id="Gw0HQZb2f8hcH7KHqkjq-1" value="" style="shape=mxgraph.cisco.routers.router;sketch=0;html=1;pointerEvents=1;dashed=0;fillColor=#036897;strokeColor=#ffffff;strokeWidth=2;verticalLabelPosition=bottom;verticalAlign=top;align=center;outlineConnect=0;" vertex="1" parent="1">
          <mxGeometry x="-140" y="340" width="78" height="53" as="geometry" />
        </mxCell>
        <mxCell id="Gw0HQZb2f8hcH7KHqkjq-15" style="edgeStyle=none;shape=connector;rounded=0;orthogonalLoop=1;jettySize=auto;html=1;exitX=0.5;exitY=1;exitDx=0;exitDy=0;exitPerimeter=0;labelBackgroundColor=default;strokeColor=default;align=center;verticalAlign=middle;fontFamily=Helvetica;fontSize=11;fontColor=default;endArrow=none;endFill=0;" edge="1" parent="1" source="Gw0HQZb2f8hcH7KHqkjq-2" target="Gw0HQZb2f8hcH7KHqkjq-14">
          <mxGeometry relative="1" as="geometry" />
        </mxCell>
        <mxCell id="Gw0HQZb2f8hcH7KHqkjq-2" value="" style="shape=mxgraph.cisco.routers.router;sketch=0;html=1;pointerEvents=1;dashed=0;fillColor=#036897;strokeColor=#ffffff;strokeWidth=2;verticalLabelPosition=bottom;verticalAlign=top;align=center;outlineConnect=0;" vertex="1" parent="1">
          <mxGeometry x="431" y="340" width="78" height="53" as="geometry" />
        </mxCell>
        <mxCell id="Gw0HQZb2f8hcH7KHqkjq-11" style="edgeStyle=none;shape=connector;rounded=0;orthogonalLoop=1;jettySize=auto;html=1;exitX=0.5;exitY=0;exitDx=0;exitDy=0;exitPerimeter=0;labelBackgroundColor=default;strokeColor=default;align=center;verticalAlign=middle;fontFamily=Helvetica;fontSize=11;fontColor=default;endArrow=none;endFill=0;" edge="1" parent="1" source="Gw0HQZb2f8hcH7KHqkjq-3" target="Gw0HQZb2f8hcH7KHqkjq-7">
          <mxGeometry relative="1" as="geometry" />
        </mxCell>
        <mxCell id="Gw0HQZb2f8hcH7KHqkjq-3" value="" style="shape=mxgraph.cisco.routers.router;sketch=0;html=1;pointerEvents=1;dashed=0;fillColor=#036897;strokeColor=#ffffff;strokeWidth=2;verticalLabelPosition=bottom;verticalAlign=top;align=center;outlineConnect=0;" vertex="1" parent="1">
          <mxGeometry x="1030" y="330" width="78" height="53" as="geometry" />
        </mxCell>
        <mxCell id="Gw0HQZb2f8hcH7KHqkjq-4" value="" style="shape=mxgraph.cisco.switches.workgroup_switch;sketch=0;html=1;pointerEvents=1;dashed=0;fillColor=#036897;strokeColor=#ffffff;strokeWidth=2;verticalLabelPosition=bottom;verticalAlign=top;align=center;outlineConnect=0;" vertex="1" parent="1">
          <mxGeometry x="-151.5" y="10" width="101" height="50" as="geometry" />
        </mxCell>
        <mxCell id="Gw0HQZb2f8hcH7KHqkjq-35" style="edgeStyle=none;shape=connector;rounded=0;orthogonalLoop=1;jettySize=auto;html=1;exitX=0.5;exitY=0;exitDx=0;exitDy=0;exitPerimeter=0;labelBackgroundColor=default;strokeColor=default;align=center;verticalAlign=middle;fontFamily=Helvetica;fontSize=11;fontColor=default;endArrow=none;endFill=0;" edge="1" parent="1" source="Gw0HQZb2f8hcH7KHqkjq-5">
          <mxGeometry relative="1" as="geometry">
            <mxPoint x="470.1428571428578" y="-560" as="targetPoint" />
          </mxGeometry>
        </mxCell>
        <mxCell id="Gw0HQZb2f8hcH7KHqkjq-5" value="" style="shape=mxgraph.cisco.switches.workgroup_switch;sketch=0;html=1;pointerEvents=1;dashed=0;fillColor=#036897;strokeColor=#ffffff;strokeWidth=2;verticalLabelPosition=bottom;verticalAlign=top;align=center;outlineConnect=0;" vertex="1" parent="1">
          <mxGeometry x="420" y="10" width="101" height="50" as="geometry" />
        </mxCell>
        <mxCell id="Gw0HQZb2f8hcH7KHqkjq-7" value="" style="shape=mxgraph.cisco.switches.workgroup_switch;sketch=0;html=1;pointerEvents=1;dashed=0;fillColor=#036897;strokeColor=#ffffff;strokeWidth=2;verticalLabelPosition=bottom;verticalAlign=top;align=center;outlineConnect=0;" vertex="1" parent="1">
          <mxGeometry x="1018.5" y="10" width="101" height="50" as="geometry" />
        </mxCell>
        <mxCell id="Gw0HQZb2f8hcH7KHqkjq-10" style="edgeStyle=none;shape=connector;rounded=0;orthogonalLoop=1;jettySize=auto;html=1;exitX=1;exitY=0.5;exitDx=0;exitDy=0;exitPerimeter=0;entryX=0;entryY=0.5;entryDx=0;entryDy=0;entryPerimeter=0;labelBackgroundColor=default;strokeColor=default;align=center;verticalAlign=middle;fontFamily=Helvetica;fontSize=11;fontColor=default;endArrow=none;endFill=0;" edge="1" parent="1" source="Gw0HQZb2f8hcH7KHqkjq-2" target="Gw0HQZb2f8hcH7KHqkjq-3">
          <mxGeometry relative="1" as="geometry" />
        </mxCell>
        <mxCell id="Gw0HQZb2f8hcH7KHqkjq-12" style="edgeStyle=none;shape=connector;rounded=0;orthogonalLoop=1;jettySize=auto;html=1;exitX=0.5;exitY=0;exitDx=0;exitDy=0;exitPerimeter=0;entryX=0.5;entryY=0.98;entryDx=0;entryDy=0;entryPerimeter=0;labelBackgroundColor=default;strokeColor=default;align=center;verticalAlign=middle;fontFamily=Helvetica;fontSize=11;fontColor=default;endArrow=none;endFill=0;" edge="1" parent="1" source="Gw0HQZb2f8hcH7KHqkjq-2" target="Gw0HQZb2f8hcH7KHqkjq-5">
          <mxGeometry relative="1" as="geometry" />
        </mxCell>
        <mxCell id="Gw0HQZb2f8hcH7KHqkjq-13" style="edgeStyle=none;shape=connector;rounded=0;orthogonalLoop=1;jettySize=auto;html=1;exitX=0.5;exitY=0;exitDx=0;exitDy=0;exitPerimeter=0;entryX=0.5;entryY=0.98;entryDx=0;entryDy=0;entryPerimeter=0;labelBackgroundColor=default;strokeColor=default;align=center;verticalAlign=middle;fontFamily=Helvetica;fontSize=11;fontColor=default;endArrow=none;endFill=0;" edge="1" parent="1" source="Gw0HQZb2f8hcH7KHqkjq-1" target="Gw0HQZb2f8hcH7KHqkjq-4">
          <mxGeometry relative="1" as="geometry" />
        </mxCell>
        <mxCell id="Gw0HQZb2f8hcH7KHqkjq-14" value="" style="ellipse;shape=cloud;whiteSpace=wrap;html=1;fontFamily=Helvetica;fontSize=11;fontColor=default;" vertex="1" parent="1">
          <mxGeometry x="337" y="580" width="266" height="160" as="geometry" />
        </mxCell>
        <mxCell id="Gw0HQZb2f8hcH7KHqkjq-17" value="" style="shape=mxgraph.cisco.computers_and_peripherals.workstation;html=1;pointerEvents=1;dashed=0;fillColor=#036897;strokeColor=#ffffff;strokeWidth=2;verticalLabelPosition=bottom;verticalAlign=top;align=center;outlineConnect=0;fontFamily=Helvetica;fontSize=11;fontColor=default;" vertex="1" parent="1">
          <mxGeometry x="10" y="-930" width="83" height="62" as="geometry" />
        </mxCell>
        <mxCell id="Gw0HQZb2f8hcH7KHqkjq-18" value="" style="shape=mxgraph.cisco.computers_and_peripherals.workstation;html=1;pointerEvents=1;dashed=0;fillColor=#036897;strokeColor=#ffffff;strokeWidth=2;verticalLabelPosition=bottom;verticalAlign=top;align=center;outlineConnect=0;fontFamily=Helvetica;fontSize=11;fontColor=default;" vertex="1" parent="1">
          <mxGeometry x="253" y="-930" width="83" height="62" as="geometry" />
        </mxCell>
        <mxCell id="Gw0HQZb2f8hcH7KHqkjq-19" value="" style="shape=mxgraph.cisco.computers_and_peripherals.workstation;html=1;pointerEvents=1;dashed=0;fillColor=#036897;strokeColor=#ffffff;strokeWidth=2;verticalLabelPosition=bottom;verticalAlign=top;align=center;outlineConnect=0;fontFamily=Helvetica;fontSize=11;fontColor=default;" vertex="1" parent="1">
          <mxGeometry x="500" y="-930" width="83" height="62" as="geometry" />
        </mxCell>
        <mxCell id="Gw0HQZb2f8hcH7KHqkjq-20" value="" style="shape=mxgraph.cisco.computers_and_peripherals.workstation;html=1;pointerEvents=1;dashed=0;fillColor=#036897;strokeColor=#ffffff;strokeWidth=2;verticalLabelPosition=bottom;verticalAlign=top;align=center;outlineConnect=0;fontFamily=Helvetica;fontSize=11;fontColor=default;" vertex="1" parent="1">
          <mxGeometry x="744" y="-930" width="83" height="62" as="geometry" />
        </mxCell>
        <mxCell id="Gw0HQZb2f8hcH7KHqkjq-21" value="" style="shape=mxgraph.cisco.computers_and_peripherals.workstation;html=1;pointerEvents=1;dashed=0;fillColor=#036897;strokeColor=#ffffff;strokeWidth=2;verticalLabelPosition=bottom;verticalAlign=top;align=center;outlineConnect=0;fontFamily=Helvetica;fontSize=11;fontColor=default;" vertex="1" parent="1">
          <mxGeometry x="990" y="-930" width="83" height="62" as="geometry" />
        </mxCell>
        <mxCell id="Gw0HQZb2f8hcH7KHqkjq-22" value="" style="shape=mxgraph.cisco.computers_and_peripherals.workstation;html=1;pointerEvents=1;dashed=0;fillColor=#036897;strokeColor=#ffffff;strokeWidth=2;verticalLabelPosition=bottom;verticalAlign=top;align=center;outlineConnect=0;fontFamily=Helvetica;fontSize=11;fontColor=default;" vertex="1" parent="1">
          <mxGeometry x="1240.5" y="-930" width="83" height="62" as="geometry" />
        </mxCell>
        <mxCell id="Gw0HQZb2f8hcH7KHqkjq-24" style="edgeStyle=none;shape=connector;rounded=0;orthogonalLoop=1;jettySize=auto;html=1;exitX=0.5;exitY=1;exitDx=0;exitDy=0;exitPerimeter=0;labelBackgroundColor=default;strokeColor=default;align=center;verticalAlign=middle;fontFamily=Helvetica;fontSize=11;fontColor=default;endArrow=none;endFill=0;" edge="1" parent="1" source="Gw0HQZb2f8hcH7KHqkjq-23">
          <mxGeometry relative="1" as="geometry">
            <mxPoint x="-192.5" y="-560" as="targetPoint" />
          </mxGeometry>
        </mxCell>
        <mxCell id="Gw0HQZb2f8hcH7KHqkjq-23" value="" style="shape=mxgraph.cisco.computers_and_peripherals.workstation;html=1;pointerEvents=1;dashed=0;fillColor=#036897;strokeColor=#ffffff;strokeWidth=2;verticalLabelPosition=bottom;verticalAlign=top;align=center;outlineConnect=0;fontFamily=Helvetica;fontSize=11;fontColor=default;" vertex="1" parent="1">
          <mxGeometry x="-234.5" y="-930" width="83" height="62" as="geometry" />
        </mxCell>
        <mxCell id="Gw0HQZb2f8hcH7KHqkjq-25" style="edgeStyle=none;shape=connector;rounded=0;orthogonalLoop=1;jettySize=auto;html=1;exitX=0.5;exitY=1;exitDx=0;exitDy=0;exitPerimeter=0;labelBackgroundColor=default;strokeColor=default;align=center;verticalAlign=middle;fontFamily=Helvetica;fontSize=11;fontColor=default;endArrow=none;endFill=0;" edge="1" parent="1" target="Gw0HQZb2f8hcH7KHqkjq-38">
          <mxGeometry relative="1" as="geometry">
            <mxPoint x="51" y="-560" as="targetPoint" />
            <mxPoint x="50.5" y="-868" as="sourcePoint" />
          </mxGeometry>
        </mxCell>
        <mxCell id="Gw0HQZb2f8hcH7KHqkjq-26" style="edgeStyle=none;shape=connector;rounded=0;orthogonalLoop=1;jettySize=auto;html=1;exitX=0.5;exitY=1;exitDx=0;exitDy=0;exitPerimeter=0;labelBackgroundColor=default;strokeColor=default;align=center;verticalAlign=middle;fontFamily=Helvetica;fontSize=11;fontColor=default;endArrow=none;endFill=0;" edge="1" parent="1">
          <mxGeometry relative="1" as="geometry">
            <mxPoint x="294" y="-560" as="targetPoint" />
            <mxPoint x="293.5" y="-868" as="sourcePoint" />
          </mxGeometry>
        </mxCell>
        <mxCell id="Gw0HQZb2f8hcH7KHqkjq-27" style="edgeStyle=none;shape=connector;rounded=0;orthogonalLoop=1;jettySize=auto;html=1;exitX=0.5;exitY=1;exitDx=0;exitDy=0;exitPerimeter=0;labelBackgroundColor=default;strokeColor=default;align=center;verticalAlign=middle;fontFamily=Helvetica;fontSize=11;fontColor=default;endArrow=none;endFill=0;" edge="1" parent="1">
          <mxGeometry relative="1" as="geometry">
            <mxPoint x="541.29" y="-560" as="targetPoint" />
            <mxPoint x="540.79" y="-868" as="sourcePoint" />
          </mxGeometry>
        </mxCell>
        <mxCell id="Gw0HQZb2f8hcH7KHqkjq-28" style="edgeStyle=none;shape=connector;rounded=0;orthogonalLoop=1;jettySize=auto;html=1;exitX=0.5;exitY=1;exitDx=0;exitDy=0;exitPerimeter=0;labelBackgroundColor=default;strokeColor=default;align=center;verticalAlign=middle;fontFamily=Helvetica;fontSize=11;fontColor=default;endArrow=none;endFill=0;" edge="1" parent="1">
          <mxGeometry relative="1" as="geometry">
            <mxPoint x="785.29" y="-560" as="targetPoint" />
            <mxPoint x="784.79" y="-868" as="sourcePoint" />
          </mxGeometry>
        </mxCell>
        <mxCell id="Gw0HQZb2f8hcH7KHqkjq-29" style="edgeStyle=none;shape=connector;rounded=0;orthogonalLoop=1;jettySize=auto;html=1;exitX=0.5;exitY=1;exitDx=0;exitDy=0;exitPerimeter=0;labelBackgroundColor=default;strokeColor=default;align=center;verticalAlign=middle;fontFamily=Helvetica;fontSize=11;fontColor=default;endArrow=none;endFill=0;" edge="1" parent="1">
          <mxGeometry relative="1" as="geometry">
            <mxPoint x="1040.5" y="-560" as="targetPoint" />
            <mxPoint x="1040" y="-868" as="sourcePoint" />
          </mxGeometry>
        </mxCell>
        <mxCell id="Gw0HQZb2f8hcH7KHqkjq-30" style="edgeStyle=none;shape=connector;rounded=0;orthogonalLoop=1;jettySize=auto;html=1;exitX=0.5;exitY=1;exitDx=0;exitDy=0;exitPerimeter=0;labelBackgroundColor=default;strokeColor=default;align=center;verticalAlign=middle;fontFamily=Helvetica;fontSize=11;fontColor=default;endArrow=none;endFill=0;" edge="1" parent="1">
          <mxGeometry relative="1" as="geometry">
            <mxPoint x="1281.39" y="-560" as="targetPoint" />
            <mxPoint x="1280.89" y="-868" as="sourcePoint" />
          </mxGeometry>
        </mxCell>
        <mxCell id="Gw0HQZb2f8hcH7KHqkjq-31" value="" style="verticalLabelPosition=bottom;sketch=0;aspect=fixed;html=1;verticalAlign=top;strokeColor=none;align=center;outlineConnect=0;shape=mxgraph.citrix.printer;fontFamily=Helvetica;fontSize=11;fontColor=default;" vertex="1" parent="1">
          <mxGeometry x="-400" y="-595" width="70" height="70" as="geometry" />
        </mxCell>
        <mxCell id="Gw0HQZb2f8hcH7KHqkjq-34" style="edgeStyle=none;shape=connector;rounded=0;orthogonalLoop=1;jettySize=auto;html=1;exitX=0;exitY=0.5;exitDx=0;exitDy=0;exitPerimeter=0;labelBackgroundColor=default;strokeColor=default;align=center;verticalAlign=middle;fontFamily=Helvetica;fontSize=11;fontColor=default;endArrow=none;endFill=0;" edge="1" parent="1" source="Gw0HQZb2f8hcH7KHqkjq-33" target="Gw0HQZb2f8hcH7KHqkjq-31">
          <mxGeometry relative="1" as="geometry" />
        </mxCell>
        <mxCell id="Gw0HQZb2f8hcH7KHqkjq-33" value="" style="fontColor=#0066CC;verticalAlign=top;verticalLabelPosition=bottom;labelPosition=center;align=center;html=1;outlineConnect=0;fillColor=#CCCCCC;strokeColor=#6881B3;gradientColor=none;gradientDirection=north;strokeWidth=2;shape=mxgraph.networks.security_camera;fontFamily=Helvetica;fontSize=11;" vertex="1" parent="1">
          <mxGeometry x="1440" y="-600" width="100" height="75" as="geometry" />
        </mxCell>
        <mxCell id="Gw0HQZb2f8hcH7KHqkjq-37" style="edgeStyle=none;shape=connector;rounded=0;orthogonalLoop=1;jettySize=auto;html=1;exitX=0.5;exitY=0;exitDx=0;exitDy=0;exitPerimeter=0;labelBackgroundColor=default;strokeColor=default;align=center;verticalAlign=middle;fontFamily=Helvetica;fontSize=11;fontColor=default;endArrow=none;endFill=0;" edge="1" parent="1" source="Gw0HQZb2f8hcH7KHqkjq-36">
          <mxGeometry relative="1" as="geometry">
            <mxPoint x="-192.3636363636365" y="-560" as="targetPoint" />
          </mxGeometry>
        </mxCell>
        <mxCell id="Gw0HQZb2f8hcH7KHqkjq-36" value="" style="outlineConnect=0;dashed=0;verticalLabelPosition=bottom;verticalAlign=top;align=center;html=1;shape=mxgraph.aws3.door_lock;fillColor=#5294CF;gradientColor=none;fontFamily=Helvetica;fontSize=11;fontColor=default;" vertex="1" parent="1">
          <mxGeometry x="-232.75" y="-380" width="79.5" height="79.5" as="geometry" />
        </mxCell>
        <mxCell id="Gw0HQZb2f8hcH7KHqkjq-38" value="" style="sketch=0;outlineConnect=0;fontColor=#232F3E;gradientColor=none;fillColor=#7AA116;strokeColor=none;dashed=0;verticalLabelPosition=bottom;verticalAlign=top;align=center;html=1;fontSize=12;fontStyle=0;aspect=fixed;pointerEvents=1;shape=mxgraph.aws4.iot_thing_temperature_sensor;fontFamily=Helvetica;" vertex="1" parent="1">
          <mxGeometry x="12.5" y="-378.5" width="78" height="78" as="geometry" />
        </mxCell>
        <mxCell id="Gw0HQZb2f8hcH7KHqkjq-41" style="edgeStyle=none;shape=connector;rounded=0;orthogonalLoop=1;jettySize=auto;html=1;exitX=0.5;exitY=0;exitDx=0;exitDy=0;labelBackgroundColor=default;strokeColor=default;align=center;verticalAlign=middle;fontFamily=Helvetica;fontSize=11;fontColor=default;endArrow=none;endFill=0;" edge="1" parent="1" source="Gw0HQZb2f8hcH7KHqkjq-39">
          <mxGeometry relative="1" as="geometry">
            <mxPoint x="1283" y="-570" as="targetPoint" />
          </mxGeometry>
        </mxCell>
        <mxCell id="Gw0HQZb2f8hcH7KHqkjq-39" value="" style="shape=image;html=1;verticalAlign=top;verticalLabelPosition=bottom;labelBackgroundColor=#ffffff;imageAspect=0;aspect=fixed;image=https://cdn0.iconfinder.com/data/icons/devices-42/512/Normal_LCD-128.png;fontFamily=Helvetica;fontSize=11;fontColor=default;" vertex="1" parent="1">
          <mxGeometry x="1218" y="-404.25" width="128" height="128" as="geometry" />
        </mxCell>
        <mxCell id="Gw0HQZb2f8hcH7KHqkjq-42" value="" style="shape=mxgraph.cisco.computers_and_peripherals.workstation;html=1;pointerEvents=1;dashed=0;fillColor=#036897;strokeColor=#ffffff;strokeWidth=2;verticalLabelPosition=bottom;verticalAlign=top;align=center;outlineConnect=0;fontFamily=Helvetica;fontSize=11;fontColor=default;" vertex="1" parent="1">
          <mxGeometry x="2200" y="4" width="83" height="62" as="geometry" />
        </mxCell>
        <mxCell id="Gw0HQZb2f8hcH7KHqkjq-43" style="edgeStyle=none;shape=connector;rounded=0;orthogonalLoop=1;jettySize=auto;html=1;exitX=0.98;exitY=0.5;exitDx=0;exitDy=0;exitPerimeter=0;entryX=0.11;entryY=0.5;entryDx=0;entryDy=0;entryPerimeter=0;labelBackgroundColor=default;strokeColor=default;align=center;verticalAlign=middle;fontFamily=Helvetica;fontSize=11;fontColor=default;endArrow=none;endFill=0;" edge="1" parent="1" source="Gw0HQZb2f8hcH7KHqkjq-7" target="Gw0HQZb2f8hcH7KHqkjq-42">
          <mxGeometry relative="1" as="geometry" />
        </mxCell>
        <mxCell id="Gw0HQZb2f8hcH7KHqkjq-44" value="" style="verticalLabelPosition=bottom;sketch=0;aspect=fixed;html=1;verticalAlign=top;strokeColor=none;align=center;outlineConnect=0;shape=mxgraph.citrix.printer;fontFamily=Helvetica;fontSize=11;fontColor=default;" vertex="1" parent="1">
          <mxGeometry x="1900" y="-170" width="70" height="70" as="geometry" />
        </mxCell>
        <mxCell id="Gw0HQZb2f8hcH7KHqkjq-49" style="edgeStyle=none;shape=connector;rounded=0;orthogonalLoop=1;jettySize=auto;html=1;exitX=0.5;exitY=0;exitDx=0;exitDy=0;labelBackgroundColor=default;strokeColor=default;align=center;verticalAlign=middle;fontFamily=Helvetica;fontSize=11;fontColor=default;endArrow=none;endFill=0;" edge="1" parent="1" source="Gw0HQZb2f8hcH7KHqkjq-45" target="Gw0HQZb2f8hcH7KHqkjq-44">
          <mxGeometry relative="1" as="geometry" />
        </mxCell>
        <mxCell id="Gw0HQZb2f8hcH7KHqkjq-45" value="" style="shape=image;html=1;verticalAlign=top;verticalLabelPosition=bottom;labelBackgroundColor=#ffffff;imageAspect=0;aspect=fixed;image=https://cdn0.iconfinder.com/data/icons/devices-42/512/Normal_LCD-128.png;fontFamily=Helvetica;fontSize=11;fontColor=default;" vertex="1" parent="1">
          <mxGeometry x="1871" y="130" width="128" height="128" as="geometry" />
        </mxCell>
        <mxCell id="Gw0HQZb2f8hcH7KHqkjq-46" value="" style="fontColor=#0066CC;verticalAlign=top;verticalLabelPosition=bottom;labelPosition=center;align=center;html=1;outlineConnect=0;fillColor=#CCCCCC;strokeColor=#6881B3;gradientColor=none;gradientDirection=north;strokeWidth=2;shape=mxgraph.networks.security_camera;fontFamily=Helvetica;fontSize=11;" vertex="1" parent="1">
          <mxGeometry x="1554" y="-170" width="100" height="75" as="geometry" />
        </mxCell>
        <mxCell id="Gw0HQZb2f8hcH7KHqkjq-50" style="edgeStyle=none;shape=connector;rounded=0;orthogonalLoop=1;jettySize=auto;html=1;exitX=0.5;exitY=0;exitDx=0;exitDy=0;exitPerimeter=0;labelBackgroundColor=default;strokeColor=default;align=center;verticalAlign=middle;fontFamily=Helvetica;fontSize=11;fontColor=default;endArrow=none;endFill=0;" edge="1" parent="1" source="Gw0HQZb2f8hcH7KHqkjq-47" target="Gw0HQZb2f8hcH7KHqkjq-46">
          <mxGeometry relative="1" as="geometry" />
        </mxCell>
        <mxCell id="Gw0HQZb2f8hcH7KHqkjq-47" value="" style="outlineConnect=0;dashed=0;verticalLabelPosition=bottom;verticalAlign=top;align=center;html=1;shape=mxgraph.aws3.door_lock;fillColor=#5294CF;gradientColor=none;fontFamily=Helvetica;fontSize=11;fontColor=default;" vertex="1" parent="1">
          <mxGeometry x="1564.25" y="154.25" width="79.5" height="79.5" as="geometry" />
        </mxCell>
        <mxCell id="Gw0HQZb2f8hcH7KHqkjq-48" value="" style="sketch=0;outlineConnect=0;fontColor=#232F3E;gradientColor=none;fillColor=#7AA116;strokeColor=none;dashed=0;verticalLabelPosition=bottom;verticalAlign=top;align=center;html=1;fontSize=12;fontStyle=0;aspect=fixed;pointerEvents=1;shape=mxgraph.aws4.iot_thing_temperature_sensor;fontFamily=Helvetica;" vertex="1" parent="1">
          <mxGeometry x="1280" y="-170" width="78" height="78" as="geometry" />
        </mxCell>
        <mxCell id="Gw0HQZb2f8hcH7KHqkjq-51" value="" style="endArrow=none;html=1;rounded=0;labelBackgroundColor=default;strokeColor=default;align=center;verticalAlign=middle;fontFamily=Helvetica;fontSize=11;fontColor=default;shape=connector;" edge="1" parent="1" target="Gw0HQZb2f8hcH7KHqkjq-48">
          <mxGeometry width="50" height="50" relative="1" as="geometry">
            <mxPoint x="1320" y="30" as="sourcePoint" />
            <mxPoint x="1450" y="-150" as="targetPoint" />
          </mxGeometry>
        </mxCell>
        <mxCell id="Gw0HQZb2f8hcH7KHqkjq-52" value="" style="shape=mxgraph.cisco.servers.fileserver;sketch=0;html=1;pointerEvents=1;dashed=0;fillColor=#036897;strokeColor=#ffffff;strokeWidth=2;verticalLabelPosition=bottom;verticalAlign=top;align=center;outlineConnect=0;fontFamily=Helvetica;fontSize=11;fontColor=default;" vertex="1" parent="1">
          <mxGeometry x="-790" y="4" width="43" height="62" as="geometry" />
        </mxCell>
        <mxCell id="Gw0HQZb2f8hcH7KHqkjq-53" style="edgeStyle=none;shape=connector;rounded=0;orthogonalLoop=1;jettySize=auto;html=1;exitX=0;exitY=0.5;exitDx=0;exitDy=0;exitPerimeter=0;entryX=1;entryY=0.5;entryDx=0;entryDy=0;entryPerimeter=0;labelBackgroundColor=default;strokeColor=default;align=center;verticalAlign=middle;fontFamily=Helvetica;fontSize=11;fontColor=default;endArrow=none;endFill=0;" edge="1" parent="1" source="Gw0HQZb2f8hcH7KHqkjq-4" target="Gw0HQZb2f8hcH7KHqkjq-52">
          <mxGeometry relative="1" as="geometry" />
        </mxCell>
        <mxCell id="Gw0HQZb2f8hcH7KHqkjq-54" value="" style="sketch=0;outlineConnect=0;fontColor=#232F3E;gradientColor=none;fillColor=#7AA116;strokeColor=none;dashed=0;verticalLabelPosition=bottom;verticalAlign=top;align=center;html=1;fontSize=12;fontStyle=0;aspect=fixed;pointerEvents=1;shape=mxgraph.aws4.iot_thing_temperature_sensor;fontFamily=Helvetica;" vertex="1" parent="1">
          <mxGeometry x="-630" y="-110" width="78" height="78" as="geometry" />
        </mxCell>
        <mxCell id="Gw0HQZb2f8hcH7KHqkjq-57" style="edgeStyle=none;shape=connector;rounded=0;orthogonalLoop=1;jettySize=auto;html=1;exitX=0.5;exitY=0;exitDx=0;exitDy=0;exitPerimeter=0;labelBackgroundColor=default;strokeColor=default;align=center;verticalAlign=middle;fontFamily=Helvetica;fontSize=11;fontColor=default;endArrow=none;endFill=0;" edge="1" parent="1" source="Gw0HQZb2f8hcH7KHqkjq-55" target="Gw0HQZb2f8hcH7KHqkjq-54">
          <mxGeometry relative="1" as="geometry" />
        </mxCell>
        <mxCell id="Gw0HQZb2f8hcH7KHqkjq-55" value="" style="outlineConnect=0;dashed=0;verticalLabelPosition=bottom;verticalAlign=top;align=center;html=1;shape=mxgraph.aws3.door_lock;fillColor=#5294CF;gradientColor=none;fontFamily=Helvetica;fontSize=11;fontColor=default;" vertex="1" parent="1">
          <mxGeometry x="-630.75" y="120" width="79.5" height="79.5" as="geometry" />
        </mxCell>
        <mxCell id="Gw0HQZb2f8hcH7KHqkjq-58" style="edgeStyle=none;shape=connector;rounded=0;orthogonalLoop=1;jettySize=auto;html=1;exitX=0.36;exitY=0.79;exitDx=0;exitDy=0;exitPerimeter=0;labelBackgroundColor=default;strokeColor=default;align=center;verticalAlign=middle;fontFamily=Helvetica;fontSize=11;fontColor=default;endArrow=none;endFill=0;" edge="1" parent="1" source="Gw0HQZb2f8hcH7KHqkjq-56">
          <mxGeometry relative="1" as="geometry">
            <mxPoint x="-379" y="30" as="targetPoint" />
          </mxGeometry>
        </mxCell>
        <mxCell id="Gw0HQZb2f8hcH7KHqkjq-56" value="" style="fontColor=#0066CC;verticalAlign=top;verticalLabelPosition=bottom;labelPosition=center;align=center;html=1;outlineConnect=0;fillColor=#CCCCCC;strokeColor=#6881B3;gradientColor=none;gradientDirection=north;strokeWidth=2;shape=mxgraph.networks.security_camera;fontFamily=Helvetica;fontSize=11;" vertex="1" parent="1">
          <mxGeometry x="-415" y="-110" width="100" height="75" as="geometry" />
        </mxCell>
      </root>
    </mxGraphModel>
  </diagram>
</mxfile>
